<svg width="20" height="20" viewBox="0 0 20 20" fill="none" xmlns="http://www.w3.org/2000/svg">
<path d="M19.1654 8.3335C19.1654 7.89147 18.9898 7.46755 18.6772 7.15498C18.3646 6.84242 17.9407 6.66683 17.4987 6.66683H12.232L13.032 2.8585C13.0487 2.77516 13.057 2.6835 13.057 2.59183C13.057 2.25016 12.9154 1.9335 12.6904 1.7085L11.807 0.833496L6.3237 6.31683C6.01537 6.62516 5.83203 7.04183 5.83203 7.50016V15.8335C5.83203 16.2755 6.00763 16.6994 6.32019 17.012C6.63275 17.3246 7.05667 17.5002 7.4987 17.5002H14.9987C15.6904 17.5002 16.282 17.0835 16.532 16.4835L19.0487 10.6085C19.1237 10.4168 19.1654 10.2168 19.1654 10.0002V8.3335ZM0.832031 17.5002H4.16536V7.50016H0.832031V17.5002Z" fill="#465BF1"/>
</svg>
