<svg width="16" height="16" viewBox="0 0 16 16" fill="none" xmlns="http://www.w3.org/2000/svg">
<path d="M1.33398 3.06667C1.33398 2.6933 1.33398 2.50661 1.40665 2.36401C1.47056 2.23856 1.57255 2.13658 1.69799 2.07266C1.8406 2 2.02728 2 2.40065 2H13.6007C13.974 2 14.1607 2 14.3033 2.07266C14.4288 2.13658 14.5307 2.23856 14.5947 2.36401C14.6673 2.50661 14.6673 2.6933 14.6673 3.06667V3.51293C14.6673 3.69213 14.6673 3.78173 14.6454 3.86504C14.626 3.93887 14.5941 4.00882 14.551 4.07184C14.5024 4.14295 14.4347 4.20164 14.2992 4.319L10.0354 8.01434C9.89997 8.1317 9.83227 8.19038 9.78365 8.26149C9.74056 8.32451 9.70862 8.39446 9.68922 8.46829C9.66732 8.55161 9.66732 8.64121 9.66732 8.8204V12.3056C9.66732 12.436 9.66732 12.5011 9.64629 12.5575C9.62771 12.6073 9.59749 12.6519 9.55815 12.6877C9.51363 12.7281 9.45311 12.7524 9.33206 12.8008L7.06539 13.7074C6.82036 13.8054 6.69785 13.8545 6.5995 13.834C6.51349 13.8161 6.43802 13.765 6.38949 13.6918C6.33398 13.6081 6.33398 13.4762 6.33398 13.2122V8.8204C6.33398 8.64121 6.33398 8.55161 6.31209 8.46829C6.29268 8.39446 6.26074 8.32451 6.21766 8.26149C6.16904 8.19038 6.10133 8.1317 5.96591 8.01434L1.70206 4.319C1.56664 4.20164 1.49893 4.14295 1.45031 4.07184C1.40723 4.00882 1.37529 3.93887 1.35588 3.86504C1.33398 3.78173 1.33398 3.69213 1.33398 3.51293V3.06667Z" stroke="#646474" stroke-width="1.6" stroke-linecap="round" stroke-linejoin="round"/>
</svg>
