<svg width="24" height="24" viewBox="0 0 24 24" fill="none" xmlns="http://www.w3.org/2000/svg">
<path d="M1.00012 4.00001V10M1.00012 10H7.00012M1.00012 10L5.63012 5.64001C7.00951 4.25975 8.80013 3.3652 10.7322 3.09116C12.6642 2.81711 14.633 3.17843 16.3418 4.12065C18.0506 5.06288 19.4069 6.53496 20.2063 8.31508C21.0056 10.0952 21.2048 12.0869 20.7738 13.9901C20.3427 15.8932 19.3048 17.6047 17.8164 18.8667C16.328 20.1286 14.4697 20.8726 12.5217 20.9866C10.5737 21.1006 8.64136 20.5783 7.01596 19.4985C5.39057 18.4187 4.16015 16.8399 3.51012 15" stroke="white" stroke-width="2" stroke-linecap="round" stroke-linejoin="round"/>
</svg>
