<svg width="180" height="38" viewBox="0 0 180 38" fill="none" xmlns="http://www.w3.org/2000/svg">
<path d="M22.9949 4.39629L0 17.6724V9.70674L16.1016 0.413452L22.9949 4.39629Z" fill="#465BF1"/>
<path d="M32.2031 9.70674V14.3023L3.98284 30.5911L0 28.2933V23.9701L28.4416 7.54512L32.2031 9.70674Z" fill="#465BF1"/>
<path d="M9.42946 33.7399L32.2031 20.6V28.2933L16.1016 37.5866L9.42946 33.7399Z" fill="#465BF1"/>
<path d="M55.4345 7.80828H69.6234V12.1097H60.0944V16.4112H68.9065V20.7127H60.0944V28.9571H55.4345V7.80828Z" fill="#082552"/>
<path d="M71.8569 6.37445H76.3376V28.9571H71.8569V6.37445Z" fill="#082552"/>
<path d="M88.0701 27.135H88.0103C87.5125 27.9117 86.8453 28.4693 86.0089 28.8078C85.1925 29.1463 84.3262 29.3156 83.4101 29.3156C82.7331 29.3156 82.0759 29.216 81.4386 29.0169C80.8213 28.8377 80.2737 28.5589 79.7957 28.1805C79.3178 27.8021 78.9394 27.3341 78.6606 26.7765C78.3818 26.2189 78.2424 25.5717 78.2424 24.8349C78.2424 23.9985 78.3918 23.2916 78.6905 22.7141C79.0091 22.1365 79.4273 21.6586 79.9451 21.2802C80.4827 20.9019 81.0901 20.6131 81.7672 20.414C82.4443 20.1949 83.1413 20.0356 83.8582 19.936C84.595 19.8364 85.3219 19.7767 86.0388 19.7568C86.7756 19.7369 87.4527 19.7269 88.0701 19.7269C88.0701 18.9304 87.7813 18.3031 87.2038 17.845C86.6462 17.3671 85.9791 17.1281 85.2024 17.1281C84.4656 17.1281 83.7885 17.2874 83.1712 17.6061C82.5737 17.9048 82.0361 18.323 81.5581 18.8607L79.1684 16.4112C80.0048 15.6346 80.9806 15.057 82.0958 14.6787C83.211 14.2804 84.366 14.0812 85.5609 14.0812C86.8752 14.0812 87.9506 14.2505 88.787 14.5891C89.6433 14.9077 90.3204 15.3856 90.8182 16.0229C91.336 16.6601 91.6945 17.4467 91.8936 18.3827C92.0927 19.2988 92.1923 20.3642 92.1923 21.5789V28.9571H88.0701V27.135ZM86.9648 22.5946C86.6263 22.5946 86.1981 22.6145 85.6804 22.6543C85.1825 22.6742 84.6946 22.7539 84.2167 22.8933C83.7586 23.0327 83.3604 23.2418 83.0218 23.5206C82.7032 23.7994 82.5439 24.1877 82.5439 24.6856C82.5439 25.2232 82.7729 25.6215 83.2309 25.8804C83.6889 26.1393 84.1669 26.2687 84.6647 26.2687C85.1029 26.2687 85.521 26.209 85.9193 26.0895C86.3375 25.97 86.7059 25.8007 87.0246 25.5817C87.3432 25.3626 87.5921 25.0838 87.7713 24.7453C87.9705 24.4068 88.0701 24.0085 88.0701 23.5504V22.5946H86.9648Z" fill="#082552"/>
<path d="M104.293 18.0243H100.35V22.8634C100.35 23.2617 100.37 23.6301 100.41 23.9686C100.45 24.2873 100.54 24.5661 100.679 24.805C100.818 25.044 101.028 25.2332 101.306 25.3726C101.605 25.4921 101.993 25.5518 102.471 25.5518C102.71 25.5518 103.019 25.5319 103.397 25.4921C103.796 25.4323 104.094 25.3129 104.293 25.1336V28.8675C103.796 29.0468 103.278 29.1663 102.74 29.226C102.202 29.2857 101.675 29.3156 101.157 29.3156C100.4 29.3156 99.7032 29.2359 99.066 29.0766C98.4287 28.9173 97.8711 28.6684 97.3932 28.3299C96.9152 27.9714 96.5369 27.5134 96.2581 26.9558C95.9992 26.3982 95.8697 25.7211 95.8697 24.9245V18.0243H93.0021V14.4397H95.8697V10.1382H100.35V14.4397H104.293V18.0243Z" fill="#082552"/>
<path d="M116.996 12.976C116.617 12.4981 116.099 12.1496 115.442 11.9305C114.805 11.6915 114.198 11.5721 113.62 11.5721C113.282 11.5721 112.933 11.6119 112.575 11.6915C112.216 11.7712 111.878 11.9006 111.559 12.0799C111.24 12.2392 110.981 12.4582 110.782 12.737C110.583 13.0158 110.484 13.3544 110.484 13.7527C110.484 14.3899 110.723 14.8778 111.2 15.2164C111.678 15.5549 112.276 15.8437 112.993 16.0826C113.73 16.3216 114.516 16.5606 115.353 16.7995C116.189 17.0385 116.966 17.377 117.683 17.8152C118.419 18.2533 119.027 18.8407 119.505 19.5776C119.983 20.3144 120.222 21.3001 120.222 22.5348C120.222 23.7098 120.003 24.7353 119.564 25.6116C119.126 26.4878 118.529 27.2147 117.772 27.7922C117.035 28.3697 116.169 28.7978 115.173 29.0766C114.198 29.3554 113.162 29.4948 112.067 29.4948C110.693 29.4948 109.418 29.2857 108.243 28.8675C107.068 28.4493 105.973 27.7723 104.957 26.8363L108.273 23.192C108.751 23.8292 109.348 24.3271 110.065 24.6856C110.802 25.0241 111.559 25.1934 112.336 25.1934C112.714 25.1934 113.092 25.1535 113.471 25.0739C113.869 24.9743 114.217 24.8349 114.516 24.6557C114.835 24.4765 115.084 24.2474 115.263 23.9686C115.462 23.6898 115.562 23.3613 115.562 22.9829C115.562 22.3456 115.313 21.8478 114.815 21.4893C114.337 21.111 113.73 20.7923 112.993 20.5334C112.256 20.2746 111.459 20.0157 110.603 19.7568C109.747 19.4979 108.95 19.1494 108.213 18.7113C107.477 18.2732 106.859 17.6957 106.361 16.9788C105.883 16.2619 105.644 15.3159 105.644 14.141C105.644 13.0059 105.863 12.0102 106.302 11.1539C106.76 10.2975 107.357 9.58064 108.094 9.00313C108.851 8.42562 109.717 7.99746 110.693 7.71866C111.668 7.41995 112.674 7.27059 113.71 7.27059C114.905 7.27059 116.06 7.43986 117.175 7.7784C118.29 8.11694 119.296 8.6845 120.192 9.48107L116.996 12.976Z" fill="#082552"/>
<path d="M127.009 6.37445V16.4112H127.069C127.168 16.1324 127.338 15.8536 127.576 15.5748C127.815 15.296 128.104 15.0471 128.443 14.828C128.781 14.609 129.18 14.4297 129.638 14.2903C130.096 14.1509 130.593 14.0812 131.131 14.0812C132.266 14.0812 133.182 14.2605 133.879 14.6189C134.576 14.9575 135.114 15.4354 135.492 16.0528C135.891 16.6701 136.16 17.397 136.299 18.2334C136.438 19.0698 136.508 19.9758 136.508 20.9516V28.9571H132.027V21.8478C132.027 21.4296 132.007 21.0014 131.968 20.5633C131.948 20.1053 131.858 19.6871 131.699 19.3087C131.559 18.9304 131.33 18.6217 131.012 18.3827C130.713 18.1437 130.275 18.0243 129.697 18.0243C129.12 18.0243 128.652 18.1338 128.293 18.3528C127.935 18.552 127.656 18.8308 127.457 19.1892C127.278 19.5278 127.158 19.9161 127.099 20.3542C127.039 20.7923 127.009 21.2504 127.009 21.7283V28.9571H122.528V6.37445H127.009Z" fill="#082552"/>
<path d="M148.194 27.135H148.134C147.637 27.9117 146.97 28.4693 146.133 28.8078C145.317 29.1463 144.45 29.3156 143.534 29.3156C142.857 29.3156 142.2 29.216 141.563 29.0169C140.945 28.8377 140.398 28.5589 139.92 28.1805C139.442 27.8021 139.064 27.3341 138.785 26.7765C138.506 26.2189 138.367 25.5717 138.367 24.8349C138.367 23.9985 138.516 23.2916 138.815 22.7141C139.133 22.1365 139.551 21.6586 140.069 21.2802C140.607 20.9019 141.214 20.6131 141.891 20.414C142.568 20.1949 143.265 20.0356 143.982 19.936C144.719 19.8364 145.446 19.7767 146.163 19.7568C146.9 19.7369 147.577 19.7269 148.194 19.7269C148.194 18.9304 147.905 18.3031 147.328 17.845C146.77 17.3671 146.103 17.1281 145.327 17.1281C144.59 17.1281 143.913 17.2874 143.295 17.6061C142.698 17.9048 142.16 18.323 141.682 18.8607L139.293 16.4112C140.129 15.6346 141.105 15.057 142.22 14.6787C143.335 14.2804 144.49 14.0812 145.685 14.0812C146.999 14.0812 148.075 14.2505 148.911 14.5891C149.767 14.9077 150.445 15.3856 150.942 16.0229C151.46 16.6601 151.819 17.4467 152.018 18.3827C152.217 19.2988 152.316 20.3642 152.316 21.5789V28.9571H148.194V27.135ZM147.089 22.5946C146.75 22.5946 146.322 22.6145 145.805 22.6543C145.307 22.6742 144.819 22.7539 144.341 22.8933C143.883 23.0327 143.485 23.2418 143.146 23.5206C142.827 23.7994 142.668 24.1877 142.668 24.6856C142.668 25.2232 142.897 25.6215 143.355 25.8804C143.813 26.1393 144.291 26.2687 144.789 26.2687C145.227 26.2687 145.645 26.209 146.043 26.0895C146.462 25.97 146.83 25.8007 147.149 25.5817C147.467 25.3626 147.716 25.0838 147.896 24.7453C148.095 24.4068 148.194 24.0085 148.194 23.5504V22.5946H147.089Z" fill="#082552"/>
<path d="M154.53 14.4397H159.011V16.7697H159.071C159.549 15.8735 160.116 15.2064 160.773 14.7683C161.43 14.3103 162.257 14.0812 163.253 14.0812C163.512 14.0812 163.77 14.0912 164.029 14.1111C164.288 14.131 164.527 14.1709 164.746 14.2306V18.323C164.428 18.2234 164.109 18.1537 163.79 18.1139C163.492 18.0541 163.173 18.0243 162.834 18.0243C161.978 18.0243 161.301 18.1437 160.803 18.3827C160.305 18.6217 159.917 18.9602 159.638 19.3983C159.379 19.8165 159.21 20.3243 159.13 20.9218C159.051 21.5192 159.011 22.1764 159.011 22.8933V28.9571H154.53V14.4397Z" fill="#082552"/>
<path d="M179.313 26.448C178.596 27.364 177.69 28.071 176.595 28.5688C175.499 29.0667 174.364 29.3156 173.189 29.3156C172.074 29.3156 171.019 29.1364 170.023 28.7779C169.047 28.4195 168.191 27.9117 167.454 27.2545C166.737 26.5774 166.17 25.7709 165.751 24.8349C165.333 23.8989 165.124 22.8534 165.124 21.6984C165.124 20.5434 165.333 19.4979 165.751 18.5619C166.17 17.626 166.737 16.8294 167.454 16.1722C168.191 15.4952 169.047 14.9774 170.023 14.6189C171.019 14.2605 172.074 14.0812 173.189 14.0812C174.225 14.0812 175.161 14.2605 175.997 14.6189C176.854 14.9774 177.57 15.4952 178.148 16.1722C178.745 16.8294 179.203 17.626 179.522 18.5619C179.841 19.4979 180 20.5434 180 21.6984V23.1024H169.605C169.784 23.9587 170.172 24.6457 170.77 25.1635C171.367 25.6614 172.104 25.9103 172.98 25.9103C173.717 25.9103 174.334 25.751 174.832 25.4323C175.35 25.0938 175.798 24.6656 176.176 24.1479L179.313 26.448ZM175.519 20.0555C175.539 19.2988 175.29 18.6516 174.772 18.1139C174.255 17.5762 173.588 17.3073 172.771 17.3073C172.273 17.3073 171.835 17.387 171.457 17.5463C171.078 17.7056 170.75 17.9147 170.471 18.1736C170.212 18.4126 170.003 18.7013 169.844 19.0399C169.704 19.3585 169.625 19.697 169.605 20.0555H175.519Z" fill="#082552"/>
</svg>
