<svg width="70" height="70" viewBox="0 0 70 70" fill="none" xmlns="http://www.w3.org/2000/svg">
<rect x="2" y="2" width="66" height="66" rx="33" fill="#465BF1" fill-opacity="0.1"/>
<path d="M34.4533 24.0823C34.5072 23.9844 34.5865 23.9026 34.6828 23.8457C34.7791 23.7888 34.8889 23.7588 35.0008 23.7588C35.1126 23.7588 35.2225 23.7888 35.3188 23.8457C35.4151 23.9026 35.4943 23.9844 35.5483 24.0823L39.2383 31.0873C39.3263 31.2495 39.4491 31.3903 39.5979 31.4994C39.7467 31.6085 39.9179 31.6833 40.099 31.7184C40.2802 31.7536 40.4669 31.7481 40.6457 31.7026C40.8245 31.657 40.991 31.5724 41.1333 31.4548L46.4795 26.8748C46.5822 26.7914 46.7086 26.7426 46.8407 26.7356C46.9728 26.7286 47.1038 26.7637 47.2146 26.8358C47.3255 26.9079 47.4107 27.0134 47.4578 27.137C47.505 27.2606 47.5117 27.3959 47.477 27.5236L43.9345 40.3311C43.8622 40.5932 43.7064 40.8245 43.4908 40.9901C43.2751 41.1557 43.0114 41.2464 42.7395 41.2486H27.2633C26.9912 41.2467 26.7272 41.1561 26.5113 40.9905C26.2954 40.8249 26.1394 40.5934 26.067 40.3311L22.5258 27.5248C22.4911 27.3972 22.4978 27.2618 22.545 27.1382C22.5921 27.0146 22.6773 26.9092 22.7882 26.837C22.899 26.7649 23.03 26.7298 23.1621 26.7368C23.2942 26.7439 23.4206 26.7926 23.5233 26.8761L28.8683 31.4561C29.0105 31.5736 29.177 31.6582 29.3559 31.7038C29.5347 31.7494 29.7214 31.7548 29.9025 31.7197C30.0837 31.6845 30.2548 31.6097 30.4036 31.5006C30.5525 31.3915 30.6753 31.2508 30.7633 31.0886L34.4533 24.0823Z" stroke="#465BF1" stroke-width="2.5" stroke-linecap="round" stroke-linejoin="round"/>
<path d="M26.252 46.25H43.752" stroke="#465BF1" stroke-width="2.5" stroke-linecap="round" stroke-linejoin="round"/>
</svg>
