<svg width="18" height="19" viewBox="0 0 18 19" fill="none" xmlns="http://www.w3.org/2000/svg">
<path d="M7 0.5625H1C0.734784 0.5625 0.48043 0.667857 0.292893 0.855393C0.105357 1.04293 0 1.29728 0 1.5625V7.5625C0 7.82772 0.105357 8.08207 0.292893 8.26961C0.48043 8.45714 0.734784 8.5625 1 8.5625H7C7.26522 8.5625 7.51957 8.45714 7.70711 8.26961C7.89464 8.08207 8 7.82772 8 7.5625V1.5625C8 1.29728 7.89464 1.04293 7.70711 0.855393C7.51957 0.667857 7.26522 0.5625 7 0.5625ZM17 10.5625H11C10.7348 10.5625 10.4804 10.6679 10.2929 10.8554C10.1054 11.0429 10 11.2973 10 11.5625V17.5625C10 17.8277 10.1054 18.0821 10.2929 18.2696C10.4804 18.4571 10.7348 18.5625 11 18.5625H17C17.2652 18.5625 17.5196 18.4571 17.7071 18.2696C17.8946 18.0821 18 17.8277 18 17.5625V11.5625C18 11.2973 17.8946 11.0429 17.7071 10.8554C17.5196 10.6679 17.2652 10.5625 17 10.5625ZM14 0.5625C11.794 0.5625 10 2.3565 10 4.5625C10 6.7685 11.794 8.5625 14 8.5625C16.206 8.5625 18 6.7685 18 4.5625C18 2.3565 16.206 0.5625 14 0.5625ZM4 10.5625C1.794 10.5625 0 12.3565 0 14.5625C0 16.7685 1.794 18.5625 4 18.5625C6.206 18.5625 8 16.7685 8 14.5625C8 12.3565 6.206 10.5625 4 10.5625Z" fill="#999999"/>
</svg>
