<svg width="39" height="39" viewBox="0 0 39 39" fill="none" xmlns="http://www.w3.org/2000/svg">
<path d="M19.2 0C8.61341 0 0 8.61341 0 19.2C0 29.7866 8.61341 38.4 19.2 38.4C29.7866 38.4 38.4 29.7866 38.4 19.2C38.4 8.61341 29.7866 0 19.2 0ZM14.276 5.90769H24.1212C28.7365 5.90769 32.4923 9.66205 32.4923 14.276V24.1212C32.4923 28.7365 28.7379 32.4923 24.124 32.4923H14.2788C9.66346 32.4923 5.90769 28.7379 5.90769 24.124V14.2788C5.90769 9.66346 9.66205 5.90769 14.276 5.90769ZM14.276 8.86154C11.2911 8.86154 8.86154 11.2925 8.86154 14.2788V24.124C8.86154 27.1089 11.2925 29.5385 14.2788 29.5385H24.124C27.1089 29.5385 29.5385 27.1075 29.5385 24.1212V14.276C29.5385 11.2911 27.1075 8.86154 24.1212 8.86154H14.276ZM26.0942 11.3221C26.6377 11.3221 27.0779 11.7623 27.0779 12.3058C27.0779 12.8493 26.6377 13.2923 26.0942 13.2923C25.5507 13.2923 25.1077 12.8493 25.1077 12.3058C25.1077 11.7623 25.5507 11.3221 26.0942 11.3221ZM19.2 11.8154C23.2719 11.8154 26.5846 15.1281 26.5846 19.2C26.5846 23.2719 23.2719 26.5846 19.2 26.5846C15.1281 26.5846 11.8154 23.2719 11.8154 19.2C11.8154 15.1281 15.1281 11.8154 19.2 11.8154ZM19.2 14.7692C18.0249 14.7692 16.8979 15.236 16.067 16.067C15.236 16.8979 14.7692 18.0249 14.7692 19.2C14.7692 20.3751 15.236 21.5021 16.067 22.333C16.8979 23.164 18.0249 23.6308 19.2 23.6308C20.3751 23.6308 21.5021 23.164 22.333 22.333C23.164 21.5021 23.6308 20.3751 23.6308 19.2C23.6308 18.0249 23.164 16.8979 22.333 16.067C21.5021 15.236 20.3751 14.7692 19.2 14.7692Z" fill="white"/>
</svg>
