<svg width="14" height="21" viewBox="0 0 14 21" fill="none" xmlns="http://www.w3.org/2000/svg">
<path d="M13.7866 8.99131C13.8263 8.99118 13.8653 9.00236 13.8991 9.02349C13.933 9.04462 13.96 9.07489 13.9776 9.1109C13.9953 9.14691 14.0029 9.18719 13.999 9.22719C13.9952 9.2672 13.9804 9.30532 13.9563 9.33724L13.0831 10.4996L5.51331 20.9119C5.48489 20.9512 5.44415 20.9795 5.39773 20.9924C5.35131 21.0052 5.30199 21.0018 5.25777 20.9826C5.21354 20.9634 5.177 20.9296 5.15421 20.8867C5.13143 20.8439 5.12361 20.7944 5.13217 20.7465L6.62902 12.261C6.63453 12.2299 6.63336 12.1981 6.62534 12.1676C6.61733 12.1372 6.60296 12.1089 6.58292 12.0847C6.56288 12.0606 6.53771 12.0411 6.50943 12.0278C6.48116 12.0145 6.45042 12.0077 6.41924 12.0078H0.212703C0.173064 12.0076 0.134452 11.9964 0.100799 11.9752C0.0671459 11.954 0.0399122 11.9238 0.0222984 11.8878C0.00468469 11.8519 -0.00276697 11.8118 0.000919632 11.7719C0.00460623 11.732 0.0191234 11.6938 0.0430092 11.6618L0.9162 10.4996L8.4853 0.0871948C8.51391 0.0482037 8.55453 0.0201326 8.60088 0.00746977C8.64723 -0.00519309 8.69638 -0.0016816 8.74051 0.0174354C8.78464 0.0365524 8.82115 0.0701179 8.84406 0.112784C8.86698 0.155451 8.87494 0.204709 8.86678 0.252557L7.36993 8.7388C7.36455 8.76976 7.36591 8.8015 7.37394 8.83186C7.38196 8.86223 7.39676 8.89051 7.41669 8.91463C7.43663 8.93874 7.46138 8.95818 7.48952 8.97155C7.51765 8.98492 7.54829 8.99186 7.57937 8.99199L13.7866 8.99131Z" fill="#304D7A"/>
</svg>
