<svg width="40" height="39" viewBox="0 0 40 39" fill="none" xmlns="http://www.w3.org/2000/svg">
<path d="M20 0.360107C9.39685 0.360107 0.800049 8.95691 0.800049 19.5601C0.800049 30.1633 9.39685 38.7601 20 38.7601C30.6032 38.7601 39.2001 30.1633 39.2001 19.5601C39.2001 8.95691 30.6032 0.360107 20 0.360107ZM12.7936 9.00491C14.1408 9.00491 15.0384 9.90251 15.0384 11.0993C15.0384 12.2961 14.1408 13.1937 12.6448 13.1937C11.2976 13.1953 10.4 12.2961 10.4 11.0993C10.4 9.90251 11.2976 9.00491 12.7936 9.00491ZM15.2 27.5601H10.4V14.7601H15.2V27.5601ZM31.2 27.5601H26.6817V20.5649C26.6817 18.6305 25.4769 18.1841 25.0257 18.1841C24.5744 18.1841 23.0672 18.4817 23.0672 20.5649C23.0672 20.8625 23.0672 27.5601 23.0672 27.5601H18.4V14.7601H23.0688V16.5457C23.6704 15.5041 24.8752 14.7601 27.1344 14.7601C29.3936 14.7601 31.2 16.5457 31.2 20.5649V27.5601Z" fill="white"/>
</svg>
