<svg width="39" height="39" viewBox="0 0 39 39" fill="none" xmlns="http://www.w3.org/2000/svg">
<path d="M19.2 0C8.5968 0 0 8.5968 0 19.2C0 29.8032 8.5968 38.4 19.2 38.4C29.8032 38.4 38.4 29.8032 38.4 19.2C38.4 8.5968 29.8032 0 19.2 0ZM29.5424 15.256C29.552 15.4688 29.5568 15.68 29.5568 15.8912C29.5568 22.4 24.6048 29.9008 15.5472 29.9008C12.7648 29.9008 10.1776 29.0864 8 27.688C8.3856 27.7344 8.7776 27.7552 9.176 27.7552C11.4848 27.7552 13.6064 26.9696 15.2896 25.6464C13.1344 25.6064 11.3152 24.1824 10.6896 22.2272C10.9904 22.2848 11.2992 22.3152 11.616 22.3152C12.0656 22.3152 12.5024 22.2544 12.9136 22.1424C10.6608 21.6912 8.9632 19.7008 8.9632 17.3152C8.9632 17.2944 8.9632 17.2736 8.9632 17.2528C9.6272 17.6224 10.3856 17.8432 11.1936 17.8688C9.8736 16.9872 9.0032 15.4784 9.0032 13.7712C9.0032 12.8672 9.2448 12.0208 9.6688 11.296C12.0976 14.2752 15.7264 16.2368 19.8176 16.4416C19.7344 16.0816 19.6912 15.7056 19.6912 15.32C19.6912 12.6016 21.896 10.3952 24.6144 10.3952C26.0304 10.3952 27.3104 10.9936 28.208 11.9504C29.3296 11.728 30.384 11.32 31.336 10.7552C30.968 11.9056 30.1872 12.8688 29.1696 13.48C30.1648 13.3616 31.1136 13.0976 31.9984 12.7056C31.3408 13.6944 30.5072 14.56 29.5424 15.256Z" fill="white"/>
</svg>
