<svg width="18" height="19" viewBox="0 0 18 19" fill="none" xmlns="http://www.w3.org/2000/svg">
<path d="M16.1722 18.3691C16.0081 18.3691 15.8733 18.3164 15.7679 18.2109C15.6624 18.1055 15.6097 17.9707 15.6097 17.8066V5.43164C15.6097 4.89258 15.5042 4.38281 15.2932 3.90234C15.0823 3.42188 14.7981 3.00586 14.4407 2.6543C14.0833 2.30273 13.6702 2.02148 13.2015 1.81055C12.721 1.59961 12.2112 1.49414 11.6722 1.49414C11.1682 1.49414 10.6936 1.58203 10.2483 1.75781C9.80301 1.93359 9.40751 2.17676 9.0618 2.4873C8.7161 2.79785 8.42606 3.1582 8.19169 3.56836C7.96903 3.99023 7.8284 4.44141 7.76981 4.92188C8.23856 4.99219 8.67801 5.14453 9.08817 5.37891C9.48661 5.61328 9.83817 5.90332 10.1429 6.24902C10.4475 6.59473 10.6819 6.98438 10.846 7.41797C11.0218 7.86328 11.1097 8.32617 11.1097 8.80664C11.1097 8.9707 11.054 9.10547 10.9427 9.21094C10.8313 9.31641 10.6995 9.36914 10.5472 9.36914H3.79715C3.63309 9.36914 3.49833 9.31641 3.39286 9.21094C3.28739 9.10547 3.23465 8.9707 3.23465 8.80664C3.23465 8.31445 3.31669 7.85156 3.48075 7.41797C3.65653 6.97266 3.89676 6.57422 4.20145 6.22266C4.50614 5.87109 4.86942 5.58398 5.29129 5.36133C5.70145 5.12695 6.14676 4.98047 6.62723 4.92188C6.69755 4.27734 6.87333 3.67969 7.15458 3.12891C7.44755 2.57812 7.81962 2.09766 8.27079 1.6875C8.72196 1.27734 9.23465 0.955078 9.80887 0.720703C10.3948 0.486328 11.0159 0.369141 11.6722 0.369141C12.3636 0.369141 13.0198 0.503906 13.6409 0.773438C14.2503 1.04297 14.7835 1.40625 15.2405 1.86328C15.6975 2.32031 16.0608 2.85352 16.3304 3.46289C16.5999 4.08398 16.7347 4.74023 16.7347 5.43164V17.8066C16.7347 17.9707 16.679 18.1055 16.5677 18.2109C16.4563 18.3164 16.3245 18.3691 16.1722 18.3691ZM9.91434 8.24414C9.78544 7.61133 9.46317 7.07812 8.94755 6.64453C8.43192 6.21094 7.84012 5.99414 7.17215 5.99414C6.50419 5.99414 5.90946 6.21094 5.38797 6.64453C4.86649 7.07812 4.54129 7.61133 4.41239 8.24414H9.91434ZM8.0159 11.9004C8.0159 12.1348 7.93094 12.334 7.76102 12.498C7.5911 12.6621 7.39481 12.7441 7.17215 12.7441C6.93778 12.7441 6.73856 12.6621 6.5745 12.498C6.41044 12.334 6.3284 12.1348 6.3284 11.9004C6.3284 11.666 6.41044 11.4668 6.5745 11.3027C6.73856 11.1387 6.93778 11.0566 7.17215 11.0566C7.39481 11.0566 7.5911 11.1387 7.76102 11.3027C7.93094 11.4668 8.0159 11.666 8.0159 11.9004ZM8.0159 16.4004C8.0159 16.6348 7.93094 16.834 7.76102 16.998C7.5911 17.1621 7.39481 17.2441 7.17215 17.2441C6.93778 17.2441 6.73856 17.1621 6.5745 16.998C6.41044 16.834 6.3284 16.6348 6.3284 16.4004C6.3284 16.166 6.41044 15.9668 6.5745 15.8027C6.73856 15.6387 6.93778 15.5566 7.17215 15.5566C7.39481 15.5566 7.5911 15.6387 7.76102 15.8027C7.93094 15.9668 8.0159 16.166 8.0159 16.4004ZM10.2659 12.7441C10.0784 12.7441 9.91141 12.6914 9.76493 12.5859C9.61844 12.4805 9.5159 12.3398 9.45731 12.1641C9.45731 12.1641 9.45731 12.1611 9.45731 12.1553C9.45731 12.1494 9.45731 12.1465 9.45731 12.1465C9.387 11.9355 9.40458 11.7275 9.51005 11.5225C9.61551 11.3174 9.77958 11.1797 10.0022 11.1094C10.0374 11.0977 10.0784 11.0859 10.1253 11.0742C10.1722 11.0625 10.219 11.0566 10.2659 11.0566C10.4417 11.0566 10.6028 11.1123 10.7493 11.2236C10.8958 11.335 10.9983 11.4727 11.0569 11.6367C11.1272 11.8594 11.1097 12.0762 11.0042 12.2871C10.8987 12.498 10.7405 12.6387 10.5296 12.709C10.4827 12.7207 10.4358 12.7295 10.389 12.7354C10.3421 12.7412 10.3011 12.7441 10.2659 12.7441ZM11.6546 17.0332C11.4788 17.0332 11.3177 16.9805 11.1712 16.875C11.0247 16.7695 10.9222 16.6289 10.8636 16.4531C10.8636 16.4531 10.8606 16.4502 10.8548 16.4443C10.8489 16.4385 10.846 16.4355 10.846 16.4355C10.7757 16.2246 10.7932 16.0137 10.8987 15.8027C11.0042 15.5918 11.1682 15.4512 11.3909 15.3809C11.4378 15.3691 11.4817 15.3604 11.5227 15.3545C11.5638 15.3486 11.6077 15.3457 11.6546 15.3457C11.7249 15.3457 11.7923 15.3516 11.8567 15.3633C11.9212 15.375 11.9827 15.3984 12.0413 15.4336C12.135 15.4805 12.22 15.5479 12.2962 15.6357C12.3723 15.7236 12.428 15.8203 12.4632 15.9258C12.5335 16.1484 12.5159 16.3623 12.4104 16.5674C12.305 16.7725 12.1409 16.9102 11.9182 16.9805C11.8714 17.0039 11.8274 17.0186 11.7864 17.0244C11.7454 17.0303 11.7015 17.0332 11.6546 17.0332ZM4.0784 12.7441C4.03153 12.7441 3.98465 12.7412 3.93778 12.7354C3.8909 12.7295 3.84989 12.7207 3.81473 12.709C3.59208 12.6387 3.42801 12.498 3.32254 12.2871C3.21708 12.0762 3.1995 11.8594 3.26981 11.6367C3.3284 11.4727 3.43094 11.335 3.57743 11.2236C3.72391 11.1123 3.8909 11.0566 4.0784 11.0566C4.11356 11.0566 4.15458 11.0625 4.20145 11.0742C4.24833 11.0859 4.28934 11.0977 4.3245 11.1094C4.54715 11.1797 4.71122 11.3174 4.81669 11.5225C4.92215 11.7275 4.93973 11.9355 4.86942 12.1465C4.86942 12.1465 4.86942 12.1494 4.86942 12.1553C4.86942 12.1611 4.86942 12.1641 4.86942 12.1641C4.81083 12.3398 4.70829 12.4805 4.5618 12.5859C4.41532 12.6914 4.25419 12.7441 4.0784 12.7441ZM2.67215 17.0332C2.637 17.0332 2.59598 17.0303 2.54911 17.0244C2.50223 17.0186 2.46122 17.0039 2.42606 16.9805C2.30887 16.9453 2.20926 16.8926 2.12723 16.8223C2.0452 16.752 1.98075 16.6699 1.93387 16.5762C1.87528 16.4707 1.84305 16.3623 1.83719 16.251C1.83133 16.1396 1.84598 16.0312 1.88114 15.9258C1.92801 15.75 2.02762 15.6094 2.17997 15.5039C2.33231 15.3984 2.49637 15.3457 2.67215 15.3457C2.71903 15.3457 2.76297 15.3486 2.80399 15.3545C2.84501 15.3604 2.88309 15.3691 2.91825 15.3809C2.91825 15.3809 2.92118 15.3809 2.92704 15.3809C2.9329 15.3809 2.93583 15.3809 2.93583 15.3809C3.15848 15.4512 3.32254 15.5889 3.42801 15.7939C3.53348 15.999 3.55106 16.2129 3.48075 16.4355C3.42215 16.6113 3.31961 16.7549 3.17313 16.8662C3.02665 16.9775 2.85965 17.0332 2.67215 17.0332Z" fill="#465BF1"/>
</svg>
