<svg width="18" height="18" viewBox="0 0 18 18" fill="none" xmlns="http://www.w3.org/2000/svg">
<path d="M17.4375 16.6816C17.2852 16.6816 17.1533 16.6289 17.042 16.5234C16.9307 16.418 16.875 16.2832 16.875 16.1191V14.4316H1.125V16.1191C1.125 16.2832 1.06934 16.418 0.958008 16.5234C0.84668 16.6289 0.714844 16.6816 0.5625 16.6816C0.410156 16.6816 0.27832 16.6289 0.166992 16.5234C0.0556641 16.418 0 16.2832 0 16.1191V10.3184C0 9.81445 0.161133 9.37207 0.483398 8.99121C0.805664 8.61035 1.20703 8.37305 1.6875 8.2793V3.74414C1.6875 3.28711 1.85156 2.8916 2.17969 2.55762C2.50781 2.22363 2.90625 2.05664 3.375 2.05664H14.625C15.0938 2.05664 15.4922 2.22363 15.8203 2.55762C16.1484 2.8916 16.3125 3.28711 16.3125 3.74414V8.2793C16.793 8.37305 17.1943 8.61035 17.5166 8.99121C17.8389 9.37207 18 9.81445 18 10.3184V16.1191C18 16.2832 17.9443 16.418 17.833 16.5234C17.7217 16.6289 17.5898 16.6816 17.4375 16.6816ZM16.875 13.3066V10.3184C16.875 10.0605 16.7842 9.83789 16.6025 9.65039C16.4209 9.46289 16.2012 9.36914 15.9434 9.36914H2.05664C1.79883 9.36914 1.5791 9.46289 1.39746 9.65039C1.21582 9.83789 1.125 10.0605 1.125 10.3184V13.3066H16.875ZM15.1875 8.24414V7.11914C15.1875 6.9668 15.1318 6.83496 15.0205 6.72363C14.9092 6.6123 14.7773 6.55664 14.625 6.55664H10.125C9.97266 6.55664 9.84082 6.6123 9.72949 6.72363C9.61816 6.83496 9.5625 6.9668 9.5625 7.11914V8.24414H15.1875ZM8.4375 8.24414V7.11914C8.4375 6.9668 8.38184 6.83496 8.27051 6.72363C8.15918 6.6123 8.02734 6.55664 7.875 6.55664H3.375C3.22266 6.55664 3.09082 6.6123 2.97949 6.72363C2.86816 6.83496 2.8125 6.9668 2.8125 7.11914V8.24414H8.4375ZM7.875 5.43164C8.08594 5.43164 8.28809 5.46973 8.48145 5.5459C8.6748 5.62207 8.84766 5.73047 9 5.87109C9.15234 5.73047 9.3252 5.62207 9.51855 5.5459C9.71191 5.46973 9.91406 5.43164 10.125 5.43164H14.625C14.7188 5.43164 14.8125 5.44043 14.9062 5.45801C15 5.47559 15.0938 5.50195 15.1875 5.53711V3.74414C15.1875 3.5918 15.1318 3.45996 15.0205 3.34863C14.9092 3.2373 14.7773 3.18164 14.625 3.18164H3.375C3.22266 3.18164 3.09082 3.2373 2.97949 3.34863C2.86816 3.45996 2.8125 3.5918 2.8125 3.74414V5.53711C2.90625 5.50195 3 5.47559 3.09375 5.45801C3.1875 5.44043 3.28125 5.43164 3.375 5.43164H7.875Z" fill="#465BF1"/>
</svg>
