<svg width="17" height="13" viewBox="0 0 17 13" fill="none" xmlns="http://www.w3.org/2000/svg">
<path d="M13.8828 10.625V11.0625C13.8828 11.8008 13.2812 12.375 12.5703 12.375H2.07031C1.33203 12.375 0.757812 11.8008 0.757812 11.0625V4.0625C0.757812 3.35156 1.33203 2.75 2.07031 2.75H2.50781V4.0625H2.23438C2.125 4.0625 2.07031 4.14453 2.07031 4.22656V10.8984C2.07031 11.0078 2.125 11.0625 2.23438 11.0625H12.4062C12.4883 11.0625 12.5703 11.0078 12.5703 10.8984V10.625H13.8828ZM15.0312 1.4375H4.85938C4.75 1.4375 4.69531 1.51953 4.69531 1.60156V8.27344C4.69531 8.38281 4.75 8.4375 4.85938 8.4375H15.0312C15.1133 8.4375 15.1953 8.38281 15.1953 8.27344V1.60156C15.1953 1.51953 15.1133 1.4375 15.0312 1.4375ZM15.1953 0.125C15.9062 0.125 16.5078 0.726562 16.5078 1.4375V8.4375C16.5078 9.17578 15.9062 9.75 15.1953 9.75H4.69531C3.95703 9.75 3.38281 9.17578 3.38281 8.4375V1.4375C3.38281 0.726562 3.95703 0.125 4.69531 0.125H15.1953ZM7.97656 3.1875C7.97656 3.81641 7.48438 4.28125 6.88281 4.28125C6.25391 4.28125 5.78906 3.81641 5.78906 3.1875C5.78906 2.58594 6.25391 2.09375 6.88281 2.09375C7.48438 2.09375 7.97656 2.58594 7.97656 3.1875ZM6.00781 5.8125L7.07422 4.74609C7.21094 4.60938 7.40234 4.60938 7.53906 4.74609L8.63281 5.8125L11.4492 2.99609C11.5859 2.85938 11.7773 2.85938 11.9141 2.99609L13.8828 4.9375V7.125H6.00781V5.8125Z" fill="#1A2258"/>
</svg>
