<svg width="16" height="16" viewBox="0 0 16 16" fill="none" xmlns="http://www.w3.org/2000/svg">
<path d="M5.33464 7.33301H11.4246C12.4013 7.33301 12.89 7.33301 13.1846 7.82301C13.4793 8.31367 13.306 8.62567 12.958 9.25101C12.6038 9.88441 12.0866 10.4115 11.46 10.7776C10.8335 11.1437 10.1203 11.3355 9.39464 11.333C8.40806 11.3353 7.45407 10.98 6.7093 10.333M5.33464 7.33301V2.66634C5.33464 2.03767 5.33464 1.72367 5.1393 1.52834C4.94397 1.33301 4.62997 1.33301 4.0013 1.33301C3.37264 1.33301 3.05864 1.33301 2.8633 1.52834C2.66797 1.72367 2.66797 2.03767 2.66797 2.66634V7.33301C2.66797 7.96167 2.66797 8.27567 2.8633 8.47101C3.05864 8.66634 3.37264 8.66634 4.0013 8.66634C4.62997 8.66634 4.94397 8.66634 5.1393 8.47101C5.33464 8.27567 5.33464 7.96167 5.33464 7.33301ZM4.66797 4.66634H6.66797" stroke="#465BF1" stroke-linecap="round" stroke-linejoin="round"/>
<path d="M10.668 11.3327C10.0013 11.9993 10.668 13.9993 12.0013 14.666H2.66797C3.33464 13.9993 4.46797 11.866 3.66797 8.66602" stroke="#465BF1" stroke-linecap="round" stroke-linejoin="round"/>
</svg>
