<svg width="24" height="25" viewBox="0 0 24 25" fill="none" xmlns="http://www.w3.org/2000/svg">
<path d="M24 16.5C24 20.9183 20.4183 24.5 16 24.5L8 24.5C3.58172 24.5 0 20.9183 0 16.5L0 0.5L16 0.5C20.4183 0.5 24 4.08172 24 8.5L24 16.5Z" fill="#66C9FF"/>
<path d="M11.0773 19.5L11.213 9.5155H12.7866L12.9223 19.5H11.0773ZM11.9998 5.5C12.3344 5.5 12.6215 5.61983 12.8612 5.8595C13.1009 6.09916 13.2207 6.3863 13.2207 6.72093C13.2207 7.05556 13.1009 7.3427 12.8612 7.58236C12.6215 7.82203 12.3344 7.94186 11.9998 7.94186C11.6651 7.94186 11.378 7.82203 11.1383 7.58236C10.8987 7.3427 10.7788 7.05556 10.7788 6.72093C10.7788 6.49935 10.8354 6.29587 10.9484 6.11047C11.0569 5.92506 11.2039 5.77584 11.3893 5.66279C11.5702 5.55426 11.7737 5.5 11.9998 5.5Z" fill="white"/>
</svg>
