<svg width="24" height="25" viewBox="0 0 24 25" fill="none" xmlns="http://www.w3.org/2000/svg">
<rect y="0.5" width="24" height="24" rx="12" fill="#D42952"/>
<path d="M12.9227 5.5L12.787 15.4845H11.2134L11.0777 5.5H12.9227ZM12.0002 19.5C11.6656 19.5 11.3785 19.3802 11.1388 19.1405C10.8991 18.9008 10.7793 18.6137 10.7793 18.2791C10.7793 17.9444 10.8991 17.6573 11.1388 17.4176C11.3785 17.178 11.6656 17.0581 12.0002 17.0581C12.3349 17.0581 12.622 17.178 12.8617 17.4176C13.1013 17.6573 13.2212 17.9444 13.2212 18.2791C13.2212 18.5006 13.1646 18.7041 13.0516 18.8895C12.9431 19.0749 12.7961 19.2242 12.6107 19.3372C12.4298 19.4457 12.2263 19.5 12.0002 19.5Z" fill="white"/>
</svg>
